<?xml version="1.0" standalone="no"?>
<!DOCTYPE svg PUBLIC "-//W3C//DTD SVG 20010904//EN"
 "http://www.w3.org/TR/2001/REC-SVG-20010904/DTD/svg10.dtd">
<svg version="1.0" xmlns="http://www.w3.org/2000/svg"
 width="650.000000pt" height="650.000000pt" viewBox="0 0 650.000000 650.000000"
 preserveAspectRatio="xMidYMid meet">
<metadata>
Created by potrace 1.11, written by Peter Selinger 2001-2013
</metadata>
<g transform="translate(0.000000,650.000000) scale(0.100000,-0.100000)"
fill="#000000" stroke="none">
<path d="M3113 5820 c-4 -15 -12 -19 -34 -16 -16 2 -32 -1 -35 -5 -3 -5 -9 -7
-13 -5 -6 4 -58 -2 -240 -29 -18 -3 -37 -7 -41 -10 -3 -2 -22 -7 -41 -10 -19
-3 -47 -8 -63 -11 -15 -2 -44 -11 -62 -19 -19 -8 -34 -12 -34 -10 0 2 -30 -8
-67 -22 -38 -14 -76 -26 -85 -26 -9 -1 -14 -5 -12 -9 3 -4 -1 -8 -8 -8 -7 0
-30 -9 -51 -20 -20 -11 -37 -17 -37 -13 0 5 -6 1 -13 -7 -12 -14 -50 -38 -104
-64 -13 -6 -23 -14 -23 -17 0 -4 -17 -18 -38 -33 l-38 -26 -37 19 c-20 10 -33
22 -29 26 4 5 0 6 -9 3 -8 -3 -37 0 -64 7 -60 15 -153 10 -202 -10 -19 -8 -40
-12 -46 -8 -6 4 -7 1 -2 -7 6 -10 4 -12 -11 -6 -10 4 -15 4 -12 0 7 -6 -33
-44 -46 -44 -11 0 -106 -111 -106 -123 0 -3 -8 -22 -17 -43 -25 -59 -34 -128
-23 -179 8 -36 2 -57 -13 -48 -7 3 -8 2 -4 -3 5 -5 16 -9 25 -9 12 0 16 -7 15
-23 -2 -16 1 -21 9 -16 8 5 9 2 5 -9 -4 -11 -1 -17 8 -17 14 0 19 -12 16 -32
0 -5 4 -8 10 -8 5 0 7 -6 3 -12 -6 -10 -4 -10 8 0 13 10 17 10 22 -3 4 -11 2
-14 -6 -9 -7 5 -8 3 -4 -5 5 -7 14 -10 21 -7 15 5 39 -17 29 -27 -3 -3 5 -3
18 0 19 4 20 3 8 -7 -13 -9 -12 -11 5 -8 11 1 30 -3 41 -10 12 -6 24 -9 27 -6
3 3 3 -3 0 -15 -3 -11 -8 -19 -12 -17 -3 2 -6 -10 -7 -27 -2 -69 -4 -78 -15
-71 -8 5 -9 2 -1 -11 6 -12 6 -30 1 -49 -5 -17 -9 -46 -9 -63 0 -20 -5 -33
-12 -33 -10 0 -9 -3 1 -9 10 -6 10 -10 1 -16 -9 -6 -9 -10 1 -16 8 -5 10 -9 4
-9 -6 0 -10 -26 -9 -59 1 -50 -2 -58 -15 -54 -14 4 -14 4 -1 -6 18 -13 23
-168 6 -190 -8 -11 -8 -13 2 -7 9 6 12 -10 9 -68 -1 -42 1 -76 6 -76 4 0 3
-10 -4 -21 -6 -12 -7 -19 -2 -16 5 3 10 -13 11 -36 3 -60 9 -142 11 -142 9 0
6 -103 -3 -114 -8 -11 -8 -13 2 -7 8 5 12 -1 12 -18 0 -34 -3 -42 -15 -38 -5
2 -2 -5 8 -16 18 -19 24 -78 8 -67 -5 3 -13 1 -16 -5 -4 -6 -3 -10 2 -9 28 5
40 -17 20 -37 -4 -4 -7 -12 -7 -18 0 -6 4 -4 10 4 6 10 9 -6 8 -48 -1 -34 1
-64 4 -68 10 -10 -4 -44 -16 -38 -6 3 -4 0 4 -8 18 -16 24 -38 9 -38 -5 0 -8
-4 -5 -8 3 -5 -7 -8 -22 -7 -15 1 -26 7 -24 14 1 7 -2 10 -8 6 -6 -3 -7 -11
-4 -17 4 -6 -5 -9 -22 -7 -31 2 -41 -1 -119 -36 -53 -23 -107 -72 -131 -117
-8 -15 -14 -30 -14 -33 0 -3 0 -6 -1 -7 -6 -21 -5 -37 2 -32 5 3 9 -2 9 -10 0
-9 3 -16 8 -16 8 0 32 -49 32 -67 0 -7 5 -13 11 -13 8 0 7 -5 -1 -15 -11 -13
-10 -14 4 -9 25 10 66 -4 67 -24 1 -11 4 -8 9 8 4 14 8 19 9 13 1 -7 6 -13 12
-13 5 0 7 5 4 10 -3 6 3 10 14 10 33 0 35 1 51 15 9 8 25 12 38 8 13 -3 22 -1
22 6 0 7 -4 9 -10 6 -5 -3 -10 -2 -10 3 0 18 29 21 33 4 4 -13 5 -12 6 4 1 18
18 34 36 34 2 0 2 -33 0 -72 -1 -40 -4 -73 -5 -73 0 0 -3 -38 -5 -85 -7 -141
-13 -180 -27 -197 -9 -12 -9 -15 -1 -9 10 5 12 -3 11 -33 -1 -22 -4 -39 -7
-37 -3 3 -5 -33 -3 -77 2 -58 0 -78 -8 -67 -6 9 -10 10 -10 3 0 -6 5 -15 10
-18 8 -5 7 -11 -1 -21 -8 -10 -8 -14 0 -14 13 0 10 -42 -4 -52 -6 -5 -4 -8 5
-8 13 0 13 -1 0 -10 -12 -8 -12 -10 -1 -10 11 0 11 -3 0 -17 -8 -9 -9 -14 -4
-11 6 4 10 -10 11 -33 1 -22 -3 -36 -8 -32 -6 3 -7 -2 -1 -13 11 -23 11 -54
-1 -73 -6 -9 -5 -12 0 -8 6 3 11 -17 12 -46 2 -29 5 -70 7 -92 3 -22 6 -54 8
-71 2 -17 7 -37 12 -44 5 -8 1 -18 -11 -28 -18 -14 -18 -14 0 -8 16 5 17 2 12
-20 -5 -19 -4 -24 6 -18 8 5 8 1 -2 -11 -8 -10 -10 -16 -4 -12 8 4 16 -9 23
-37 6 -24 14 -51 18 -61 4 -12 3 -16 -5 -11 -6 3 -14 2 -17 -4 -4 -6 -3 -10 2
-9 21 4 33 -2 33 -16 0 -13 28 -82 48 -119 3 -5 -2 -7 -11 -3 -11 4 -14 2 -11
-8 3 -8 12 -11 20 -8 8 3 14 -1 14 -10 0 -8 10 -27 22 -43 13 -15 17 -25 11
-21 -6 4 -15 2 -19 -4 -4 -7 -3 -9 3 -6 6 4 19 -1 29 -9 10 -9 12 -13 4 -9 -8
4 -5 -2 8 -13 15 -14 18 -22 10 -25 -7 -3 -4 -6 6 -6 11 -1 17 -4 13 -7 -3 -3
9 -19 26 -35 27 -24 30 -30 17 -40 -12 -8 -10 -9 8 -4 13 4 22 2 22 -4 0 -6
-6 -11 -14 -11 -8 0 -18 -4 -21 -10 -4 -6 3 -6 21 0 29 11 40 8 29 -9 -3 -6
-12 -8 -18 -5 -7 4 -8 3 -4 -1 10 -12 38 -15 31 -4 -3 5 0 9 5 9 25 0 8 -37
-24 -54 -20 -11 -56 -38 -80 -62 -25 -23 -45 -39 -45 -36 0 4 -10 -10 -23 -31
-13 -21 -25 -36 -28 -33 -3 3 -6 -3 -7 -12 -9 -90 -8 -109 9 -139 19 -34 16
-42 -14 -38 -9 2 -15 0 -12 -5 2 -4 19 -6 37 -5 34 3 75 -26 63 -44 -3 -5 3
-8 12 -7 10 2 21 -1 24 -6 10 -15 64 -12 99 5 18 9 36 14 41 11 5 -3 9 2 9 10
0 10 6 13 15 10 9 -4 15 0 15 9 0 9 5 19 12 23 6 4 8 3 5 -3 -4 -6 -1 -13 7
-16 9 -4 12 0 9 13 -7 26 32 46 55 28 15 -12 16 -11 4 4 -18 22 -6 40 21 33
12 -2 16 -2 10 1 -20 9 -15 27 4 20 10 -4 14 -4 10 0 -3 4 3 15 15 26 17 14
23 16 30 6 6 -10 8 -8 8 4 0 12 5 15 17 11 10 -4 14 -2 10 4 -9 14 33 25 48
13 6 -5 17 -5 24 -1 21 14 49 1 61 -28 7 -17 9 -19 6 -5 -3 17 1 20 20 16 13
-2 24 -9 24 -14 0 -5 6 -8 13 -7 30 4 48 -2 67 -23 18 -19 22 -21 31 -8 8 13
11 13 23 -2 13 -18 32 -26 22 -10 -3 5 8 6 25 4 16 -2 29 -7 29 -11 0 -4 13
-6 29 -5 32 2 45 -4 54 -26 4 -12 6 -11 6 3 1 9 6 17 11 17 14 0 12 -23 -2
-39 -11 -11 -10 -12 2 -5 8 5 21 9 28 10 8 2 17 6 20 10 4 4 -1 4 -10 1 -10
-4 -18 -2 -18 3 0 6 15 8 33 6 17 -3 40 -5 50 -5 10 -1 22 -11 28 -23 l10 -23
-5 22 c-2 13 0 23 5 23 5 0 9 -5 9 -11 0 -8 5 -8 15 1 8 7 15 8 15 3 0 -6 15
-9 34 -7 23 3 36 0 40 -11 7 -19 26 -20 26 -1 0 17 45 12 68 -7 11 -9 17 -7
28 8 8 10 14 14 14 7 0 -6 6 -9 13 -7 6 2 64 6 127 9 63 2 115 5 115 6 0 1 23
4 50 6 48 4 49 3 20 -9 -25 -11 -27 -14 -12 -20 11 -4 16 -3 12 3 -3 6 1 10
10 10 8 0 18 7 21 15 5 13 9 13 22 3 13 -11 14 -11 7 2 -8 13 -7 13 10 0 11
-9 16 -10 11 -3 -4 8 -2 13 6 14 27 1 69 8 87 14 11 3 25 -1 34 -10 20 -19 33
-20 17 0 -10 12 -9 16 5 21 9 4 22 1 28 -6 10 -10 8 -12 -5 -7 -24 8 -23 0 1
-13 18 -9 19 -7 15 16 -3 15 -1 23 5 20 5 -4 21 -2 36 4 15 6 24 6 20 1 -3 -5
-1 -13 5 -16 6 -4 10 -3 9 2 -4 25 3 35 21 30 11 -3 20 0 20 6 0 6 3 7 7 4 3
-4 12 -2 18 3 8 7 21 7 38 1 21 -8 25 -7 21 4 -3 7 4 18 15 24 27 15 39 14 18
-1 -12 -10 -14 -17 -6 -28 9 -12 10 -12 7 -1 -4 14 24 51 38 51 3 0 35 14 70
30 52 25 68 29 84 20 11 -6 18 -16 14 -21 -3 -6 -12 -3 -21 8 -13 16 -13 16
-3 -5 9 -19 14 -21 26 -11 8 6 18 9 21 5 4 -4 2 -11 -6 -15 -10 -6 -9 -10 4
-14 9 -4 13 -3 10 3 -12 19 8 10 27 -12 10 -12 17 -27 14 -34 -2 -6 3 -11 12
-10 10 0 16 -6 16 -16 -1 -10 1 -17 5 -16 21 2 30 -4 25 -17 -5 -11 -2 -13 10
-9 12 5 19 0 23 -15 3 -11 9 -18 14 -15 5 3 9 -4 9 -15 0 -12 5 -21 11 -21 6
0 7 6 2 12 -4 7 5 5 19 -4 33 -22 76 -25 107 -9 13 7 21 9 18 4 -3 -5 5 -9 18
-9 13 0 21 4 19 8 -3 5 -10 6 -15 3 -23 -15 -6 15 19 31 38 25 62 54 62 76 0
11 3 17 8 15 4 -3 7 6 7 19 0 13 -3 24 -7 24 -4 0 -6 8 -6 18 1 23 -5 46 -15
53 -4 3 -9 15 -10 27 0 11 -4 20 -8 19 -4 -1 -7 2 -7 6 -1 5 -12 17 -27 28
-14 12 -23 25 -20 30 4 5 1 9 -4 9 -6 0 -30 18 -53 40 -24 22 -47 40 -52 40
-6 0 -1 7 10 15 10 8 16 15 11 15 -4 0 7 16 24 35 18 19 36 32 40 29 5 -3 6 2
3 10 -4 9 1 18 10 22 9 3 13 10 10 15 -3 5 2 9 10 9 9 0 16 3 15 8 -2 13 13
52 20 52 4 0 12 -5 19 -10 9 -7 9 -7 2 2 -5 7 -10 18 -10 25 0 18 41 53 54 46
8 -5 8 -3 0 8 -15 19 -14 49 2 49 8 0 11 6 8 15 -4 8 -1 15 5 15 6 0 8 7 5 15
-4 8 -1 15 6 15 7 0 10 7 6 16 -5 12 -2 15 11 10 13 -5 15 -4 7 4 -8 8 -6 26
8 67 10 31 18 62 18 70 0 8 4 12 9 9 5 -4 7 3 4 14 -4 13 1 27 13 36 11 9 13
13 7 9 -7 -3 -13 -2 -13 2 0 5 6 15 13 22 10 11 9 12 -1 6 -11 -6 -12 -3 -3
13 6 11 11 32 11 47 0 14 4 24 8 21 4 -3 7 12 7 32 -1 23 4 42 14 50 9 8 10
11 4 7 -9 -4 -12 7 -10 40 1 25 4 45 7 45 3 0 5 16 5 35 -1 22 4 36 13 40 12
4 13 8 4 17 -16 16 -15 90 1 107 10 11 10 13 0 7 -7 -4 -13 -3 -13 1 0 5 6 15
13 22 6 8 7 11 2 8 -6 -3 -11 3 -11 14 0 10 5 19 11 19 5 0 4 4 -3 9 -17 11
-17 21 0 32 7 5 8 9 2 9 -12 0 -12 49 0 68 4 7 3 12 -3 12 -6 0 -8 7 -5 15 4
9 11 12 18 8 7 -5 3 0 -8 10 -17 16 -18 20 -5 28 9 6 10 12 4 17 -13 8 -13 22
-1 41 6 9 5 12 -1 8 -6 -4 -10 28 -11 81 -1 48 -4 104 -6 125 -3 21 -1 35 4
32 5 -3 12 0 16 6 4 8 3 9 -5 5 -15 -10 -19 6 -24 85 -3 56 -1 65 14 66 10 1
23 -5 30 -13 6 -8 17 -14 23 -14 7 0 21 -7 32 -16 10 -8 13 -13 7 -9 -7 3 -13
1 -13 -4 0 -14 13 -14 28 1 9 9 12 9 12 0 0 -7 5 -12 11 -12 5 0 7 5 3 11 -5
8 -2 9 12 1 34 -19 105 30 110 76 2 14 9 29 16 33 36 23 11 111 -46 161 -17
15 -39 34 -48 42 -10 9 -18 14 -18 11 0 -3 -15 1 -32 8 -35 15 -99 30 -133 31
-12 1 -19 8 -19 19 1 9 -2 14 -7 11 -13 -8 -11 10 3 24 8 8 8 12 1 12 -6 0
-10 19 -9 43 1 29 5 41 14 39 8 -1 11 2 7 8 -3 6 -10 8 -15 5 -9 -5 -19 173
-10 181 2 3 3 30 2 60 -1 42 1 53 10 48 10 -6 11 -4 1 7 -7 7 -13 25 -13 40 0
15 6 30 13 32 10 4 10 6 0 6 -7 1 -13 10 -13 22 0 13 4 18 13 13 8 -5 7 -2 -2
10 -19 23 -21 78 -2 71 12 -5 12 -3 1 10 -19 23 -19 65 0 65 12 0 13 2 1 9 -8
5 -10 14 -6 21 5 9 4 11 -3 6 -7 -4 -12 -2 -12 3 0 6 6 11 13 11 8 0 8 3 -2 9
-13 8 -13 12 0 27 8 10 9 15 2 11 -8 -5 -11 10 -9 53 1 33 -2 60 -7 60 -5 0
-4 7 3 15 10 12 10 15 0 15 -10 0 -10 3 0 15 7 8 8 15 3 15 -6 0 -11 26 -13
58 -3 74 -7 137 -9 137 -3 0 -10 57 -14 106 -2 19 -7 40 -11 48 -5 8 -3 17 5
22 8 5 9 9 3 9 -8 0 -27 68 -37 140 -2 8 -7 21 -11 29 -7 11 -5 13 10 8 18 -7
18 -7 0 8 -17 13 -18 17 -6 28 10 9 11 9 6 0 -5 -9 -2 -11 8 -7 9 3 14 10 11
14 -3 4 11 15 29 24 19 9 53 34 74 55 31 31 42 37 52 28 10 -10 10 -7 1 11 -7
12 -8 22 -2 22 5 0 11 -4 13 -9 2 -5 10 -2 18 7 13 14 12 15 -4 9 -15 -6 -17
-4 -11 10 4 10 10 26 12 36 3 9 8 17 12 17 7 0 8 9 9 85 1 81 -2 115 -10 115
-4 0 -8 7 -8 15 0 9 -7 27 -16 40 -9 13 -12 30 -8 36 4 8 3 9 -4 5 -11 -7 -17
7 -12 29 1 5 -2 7 -6 3 -10 -11 -45 32 -37 46 3 6 3 8 -2 4 -4 -4 -25 6 -46
22 -20 17 -52 36 -71 44 -18 7 -42 17 -53 21 -27 12 -188 12 -196 1 -4 -5 -20
-9 -37 -10 -17 0 -29 -3 -27 -6 2 -3 -14 -15 -35 -26 l-38 -21 -32 28 c-17 16
-33 29 -35 29 -3 0 -28 15 -57 33 -29 18 -68 39 -85 46 -18 7 -30 18 -26 24 3
6 1 7 -6 3 -7 -4 -29 0 -49 10 -37 18 -43 20 -63 23 -5 0 -8 5 -5 10 4 5 -2 7
-12 4 -10 -2 -31 1 -47 8 -17 6 -39 13 -51 14 -11 2 -38 8 -60 14 -21 5 -59
13 -84 16 -25 3 -52 8 -60 10 -8 2 -46 7 -85 10 -38 4 -83 9 -100 10 -16 2
-75 4 -130 5 -55 1 -105 7 -112 12 -7 6 -14 5 -18 -2 -9 -15 -38 -13 -29 3 6
10 4 10 -7 0 -20 -19 -73 -17 -65 2 3 8 3 15 0 15 -3 0 -8 -9 -11 -20z m1567
-4374 c0 -3 -4 -8 -10 -11 -5 -3 -10 -1 -10 4 0 6 5 11 10 11 6 0 10 -2 10 -4z
m-1515 -696 c3 -5 1 -10 -4 -10 -6 0 -11 5 -11 10 0 6 2 10 4 10 3 0 8 -4 11
-10z"/>
<path d="M3555 5831 c-3 -5 -2 -12 3 -15 5 -3 9 1 9 9 0 17 -3 19 -12 6z"/>
<path d="M1519 5373 c-13 -16 -12 -17 4 -4 9 7 17 15 17 17 0 8 -8 3 -21 -13z"/>
<path d="M1436 5102 c-3 -5 1 -9 9 -9 8 0 12 4 9 9 -3 4 -7 8 -9 8 -2 0 -6 -4
-9 -8z"/>
<path d="M4879 4988 c-6 -21 -5 -37 2 -32 5 3 7 9 4 14 -3 4 1 11 7 13 10 4
10 6 1 6 -7 1 -13 0 -14 -1z"/>
<path d="M4820 4940 c-12 -7 -10 -9 7 -7 12 0 19 5 17 9 -6 10 -6 10 -24 -2z"/>
<path d="M4788 4913 c7 -3 16 -2 19 1 4 3 -2 6 -13 5 -11 0 -14 -3 -6 -6z"/>
<path d="M4767 4899 c7 -7 15 -10 18 -7 3 3 -2 9 -12 12 -14 6 -15 5 -6 -5z"/>
<path d="M1610 4840 c0 -5 5 -10 11 -10 5 0 7 5 4 10 -3 6 -8 10 -11 10 -2 0
-4 -4 -4 -10z"/>
<path d="M4815 4329 c-4 -6 -5 -12 -2 -15 2 -3 7 2 10 11 7 17 1 20 -8 4z"/>
<path d="M1633 4255 c0 -8 4 -12 9 -9 5 3 6 10 3 15 -9 13 -12 11 -12 -6z"/>
<path d="M1630 3981 c0 -6 4 -13 10 -16 6 -3 7 1 4 9 -7 18 -14 21 -14 7z"/>
<path d="M1656 3733 c-6 -14 -5 -15 5 -6 7 7 10 15 7 18 -3 3 -9 -2 -12 -12z"/>
<path d="M1675 3601 c-3 -5 -2 -12 3 -15 5 -3 9 1 9 9 0 17 -3 19 -12 6z"/>
<path d="M4825 3500 c-3 -6 1 -7 9 -4 18 7 21 14 7 14 -6 0 -13 -4 -16 -10z"/>
<path d="M1370 2979 c0 -5 5 -7 10 -4 6 3 10 8 10 11 0 2 -4 4 -10 4 -5 0 -10
-5 -10 -11z"/>
<path d="M4850 2980 c-9 -6 -10 -10 -3 -10 6 0 15 5 18 10 8 12 4 12 -15 0z"/>
<path d="M4873 2955 c0 -8 4 -12 9 -9 4 3 8 9 8 15 0 5 -4 9 -8 9 -5 0 -9 -7
-9 -15z"/>
<path d="M1591 2927 c-13 -21 -12 -21 5 -5 10 10 16 20 13 22 -3 3 -11 -5 -18
-17z"/>
<path d="M4896 2934 c-5 -14 -4 -15 9 -4 17 14 19 20 6 20 -5 0 -12 -7 -15
-16z"/>
<path d="M4990 2920 c-8 -5 0 -7 18 -7 17 1 29 4 26 6 -8 9 -31 9 -44 1z"/>
<path d="M1460 2915 c0 -5 5 -17 10 -25 5 -8 10 -10 10 -5 0 6 -5 17 -10 25
-5 8 -10 11 -10 5z"/>
<path d="M1536 2905 c-9 -26 -7 -32 5 -12 6 10 9 21 6 23 -2 3 -7 -2 -11 -11z"/>
<path d="M1673 2905 c0 -8 4 -12 9 -9 5 3 6 10 3 15 -9 13 -12 11 -12 -6z"/>
<path d="M1640 2100 c-9 -6 -10 -10 -3 -10 6 0 15 5 18 10 8 12 4 12 -15 0z"/>
<path d="M4850 2040 c0 -5 5 -10 11 -10 5 0 7 5 4 10 -3 6 -8 10 -11 10 -2 0
-4 -4 -4 -10z"/>
<path d="M1636 1978 c3 -5 10 -6 15 -3 13 9 11 12 -6 12 -8 0 -12 -4 -9 -9z"/>
<path d="M4830 1859 c0 -5 5 -7 10 -4 6 3 10 8 10 11 0 2 -4 4 -10 4 -5 0 -10
-5 -10 -11z"/>
<path d="M4775 1680 c-3 -5 -1 -10 4 -10 6 0 11 5 11 10 0 6 -2 10 -4 10 -3 0
-8 -4 -11 -10z"/>
<path d="M1696 1657 c3 -10 9 -15 12 -12 3 3 0 11 -7 18 -10 9 -11 8 -5 -6z"/>
<path d="M4655 1399 c-4 -6 -5 -12 -2 -15 2 -3 7 2 10 11 7 17 1 20 -8 4z"/>
<path d="M1890 1222 c0 -5 7 -9 15 -9 8 0 12 4 9 9 -3 4 -9 8 -15 8 -5 0 -9
-4 -9 -8z"/>
<path d="M4520 1210 c-6 -11 -8 -20 -6 -20 3 0 10 9 16 20 6 11 8 20 6 20 -3
0 -10 -9 -16 -20z"/>
<path d="M4151 931 c-8 -5 -16 -20 -18 -33 -2 -17 -1 -19 6 -8 5 8 7 18 4 24
-4 5 0 7 9 4 9 -4 15 0 15 8 0 8 -1 14 -1 14 -1 0 -7 -4 -15 -9z"/>
<path d="M4105 900 c3 -5 8 -10 11 -10 2 0 4 5 4 10 0 6 -5 10 -11 10 -5 0 -7
-4 -4 -10z"/>
<path d="M4070 891 c0 -7 -5 -9 -12 -5 -7 5 -8 3 -3 -5 5 -9 10 -10 18 -2 6 6
8 14 4 18 -4 3 -7 1 -7 -6z"/>
<path d="M2326 882 c-3 -5 1 -9 9 -9 8 0 12 4 9 9 -3 4 -7 8 -9 8 -2 0 -6 -4
-9 -8z"/>
<path d="M2390 870 c0 -6 7 -10 15 -10 8 0 15 2 15 4 0 2 -7 6 -15 10 -8 3
-15 1 -15 -4z"/>
<path d="M2356 862 c-3 -5 1 -9 9 -9 8 0 12 4 9 9 -3 4 -7 8 -9 8 -2 0 -6 -4
-9 -8z"/>
<path d="M2467 847 c-3 -8 1 -14 8 -14 7 0 11 6 8 14 -3 7 -6 13 -8 13 -2 0
-5 -6 -8 -13z"/>
<path d="M2254 842 c3 -5 0 -13 -6 -15 -9 -4 -10 -6 -1 -6 17 -1 25 16 12 25
-7 4 -9 3 -5 -4z"/>
<path d="M2506 842 c-3 -5 1 -9 9 -9 8 0 12 4 9 9 -3 4 -7 8 -9 8 -2 0 -6 -4
-9 -8z"/>
<path d="M3915 830 c-17 -18 -17 -20 -2 -14 9 3 17 10 17 16 0 5 5 6 12 2 7
-4 8 -3 4 4 -9 16 -10 15 -31 -8z"/>
<path d="M2536 823 c-6 -14 -5 -15 5 -6 7 7 10 15 7 18 -3 3 -9 -2 -12 -12z"/>
<path d="M3870 820 c0 -5 5 -10 11 -10 5 0 7 5 4 10 -3 6 -8 10 -11 10 -2 0
-4 -4 -4 -10z"/>
<path d="M1755 811 c-3 -5 -2 -12 3 -15 5 -3 9 1 9 9 0 17 -3 19 -12 6z"/>
<path d="M2555 800 c3 -5 8 -10 11 -10 2 0 4 5 4 10 0 6 -5 10 -11 10 -5 0 -7
-4 -4 -10z"/>
<path d="M3811 807 c2 -1 13 -9 24 -17 19 -14 19 -14 6 3 -7 9 -18 17 -24 17
-6 0 -8 -1 -6 -3z"/>
<path d="M2655 789 c-4 -6 -5 -12 -2 -15 2 -3 7 2 10 11 7 17 1 20 -8 4z"/>
<path d="M2610 779 c0 -5 5 -7 10 -4 6 3 10 8 10 11 0 2 -4 4 -10 4 -5 0 -10
-5 -10 -11z"/>
<path d="M2715 780 c-16 -7 -17 -9 -3 -9 9 -1 20 4 23 9 7 11 7 11 -20 0z"/>
<path d="M3676 774 c-20 -19 -20 -21 -2 -21 8 0 14 5 13 11 -1 6 4 10 11 8 8
-1 11 2 7 8 -8 13 -11 13 -29 -6z"/>
<path d="M3615 770 c-3 -5 -5 -10 -3 -11 33 -8 38 -7 27 7 -14 17 -16 17 -24
4z"/>
<path d="M2740 766 c0 -2 7 -6 15 -10 8 -3 15 -1 15 4 0 6 -7 10 -15 10 -8 0
-15 -2 -15 -4z"/>
<path d="M2901 744 c0 -11 3 -14 6 -6 3 7 2 16 -1 19 -3 4 -6 -2 -5 -13z"/>
<path d="M3462 751 c-11 -7 -11 -9 0 -14 9 -3 15 1 15 9 0 8 -1 14 -1 14 -1 0
-7 -4 -14 -9z"/>
<path d="M4624 745 c-18 -15 -18 -15 0 -8 15 5 17 3 11 -8 -5 -8 -4 -11 0 -6
8 7 17 37 11 37 -1 0 -11 -7 -22 -15z"/>
<path d="M2970 738 c0 -4 4 -8 9 -8 6 0 12 4 15 8 3 5 -1 9 -9 9 -8 0 -15 -4
-15 -9z"/>
<path d="M3108 736 c5 -11 17 -21 26 -22 9 -1 13 2 10 8 -3 5 -8 7 -12 4 -3
-3 -11 2 -19 12 -13 16 -14 16 -5 -2z"/>
<path d="M3346 738 c3 -4 9 -8 15 -8 5 0 9 4 9 8 0 5 -7 9 -15 9 -8 0 -12 -4
-9 -9z"/>
<path d="M3410 742 c0 -5 7 -9 15 -9 8 0 12 4 9 9 -3 4 -9 8 -15 8 -5 0 -9 -4
-9 -8z"/>
<path d="M3570 739 c0 -5 5 -7 10 -4 6 3 10 8 10 11 0 2 -4 4 -10 4 -5 0 -10
-5 -10 -11z"/>
<path d="M3310 736 c0 -3 9 -10 20 -16 11 -6 20 -8 20 -6 0 3 -9 10 -20 16
-11 6 -20 8 -20 6z"/>
<path d="M3035 721 c-3 -5 -2 -12 3 -15 5 -3 9 1 9 9 0 17 -3 19 -12 6z"/>
<path d="M3175 720 c-3 -5 -1 -10 4 -10 6 0 11 5 11 10 0 6 -2 10 -4 10 -3 0
-8 -4 -11 -10z"/>
<path d="M3257 723 c-3 -5 8 -8 23 -8 15 0 26 3 23 8 -2 4 -13 7 -23 7 -10 0
-21 -3 -23 -7z"/>
<path d="M1830 711 c0 -5 7 -11 14 -14 10 -4 13 -1 9 9 -6 15 -23 19 -23 5z"/>
<path d="M4416 698 c3 -5 10 -6 15 -3 13 9 11 12 -6 12 -8 0 -12 -4 -9 -9z"/>
<path d="M4547 699 c7 -7 15 -10 18 -7 3 3 -2 9 -12 12 -14 6 -15 5 -6 -5z"/>
<path d="M2079 698 c-5 -18 -6 -38 -1 -34 7 8 12 36 6 36 -2 0 -4 -1 -5 -2z"/>
<path d="M4495 680 c-3 -6 1 -7 9 -4 18 7 21 14 7 14 -6 0 -13 -4 -16 -10z"/>
<path d="M1870 659 c0 -5 5 -7 10 -4 6 3 10 8 10 11 0 2 -4 4 -10 4 -5 0 -10
-5 -10 -11z"/>
<path d="M2010 660 c0 -5 5 -10 10 -10 6 0 10 5 10 10 0 6 -4 10 -10 10 -5 0
-10 -4 -10 -10z"/>
<path d="M1946 648 c3 -5 10 -6 15 -3 13 9 11 12 -6 12 -8 0 -12 -4 -9 -9z"/>
</g>
</svg>
